<svg xmlns="http://www.w3.org/2000/svg" width="45" height="21" fill="none" viewBox="0 0 45 21">
    <path stroke="#D5DCEA" stroke-linejoin="round" stroke-width="2" d="M1.443 19.218L13.977 5.431l9.024 13.787 6.518-6.266 5.515 6.266"/>
    <path stroke="#D5DCEA" stroke-linejoin="round" stroke-width="2" d="M5.044 1.762c.112-.446.513-.76.973-.76h32.966c.46 0 .861.314.973.76l4.01 16.043c.159.633-.32 1.246-.972 1.246H2.006c-.652 0-1.13-.613-.972-1.246l4.01-16.043z"/>
    <path stroke="#D5DCEA" stroke-linejoin="round" stroke-width="2" d="M35.535 6.016c0 .667-.719 1.504-2.005 1.504-1.287 0-2.006-.837-2.006-1.504s.72-1.504 2.006-1.504c1.286 0 2.005.837 2.005 1.504z"/>
</svg>
