<?xml version="1.0" encoding="utf-8"?>
<!-- Generator: Adobe Illustrator 14.0.0, SVG Export Plug-In . SVG Version: 6.00 Build 43363)  -->
<!DOCTYPE svg PUBLIC "-//W3C//DTD SVG 1.1//EN" "http://www.w3.org/Graphics/SVG/1.1/DTD/svg11.dtd">
<svg version="1.1" id="Calque_1" xmlns="http://www.w3.org/2000/svg" xmlns:xlink="http://www.w3.org/1999/xlink" x="0px" y="0px"
	 width="138.957px" height="35.192px" viewBox="0 0 138.957 35.192" enable-background="new 0 0 138.957 35.192"
	 xml:space="preserve">
<title>Group 16</title>
<desc>Created with Sketch.</desc>
<g id="_Logo">
	<g id="Group-16">
		<path id="wifeo" fill="#FFFFFF" d="M31.26,19.71l2.975,10.047l2.708-9.339c0.29-0.977,0.505-1.644,0.644-2.001
			c0.139-0.356,0.401-0.697,0.786-1.021c0.384-0.323,0.911-0.485,1.58-0.485c0.68,0,1.212,0.162,1.597,0.485
			c0.384,0.324,0.655,0.676,0.811,1.054c0.156,0.379,0.373,1.035,0.652,1.968l2.708,9.339l3.008-10.047
			c0.201-0.725,0.362-1.249,0.485-1.573c0.122-0.324,0.328-0.61,0.618-0.856c0.29-0.248,0.708-0.371,1.253-0.371
			c0.546,0,1.02,0.187,1.421,0.56c0.401,0.374,0.602,0.813,0.602,1.318c0,0.461-0.173,1.159-0.519,2.092l-3.727,10.772
			c-0.323,0.911-0.574,1.57-0.752,1.977c-0.178,0.406-0.46,0.768-0.844,1.087c-0.384,0.318-0.911,0.478-1.58,0.478
			c-0.691,0-1.234-0.17-1.63-0.51c-0.396-0.341-0.688-0.758-0.877-1.252c-0.189-0.495-0.396-1.137-0.619-1.927l-2.607-8.763
			l-2.524,8.763c-0.334,1.219-0.696,2.139-1.086,2.759s-1.075,0.931-2.056,0.931c-0.501,0-0.927-0.096-1.278-0.288
			c-0.352-0.192-0.644-0.467-0.878-0.824c-0.234-0.357-0.44-0.78-0.618-1.268c-0.178-0.489-0.318-0.876-0.418-1.161l-3.694-10.772
			c-0.368-1.01-0.552-1.708-0.552-2.092c0-0.483,0.195-0.917,0.585-1.301s0.869-0.576,1.438-0.576c0.758,0,1.271,0.211,1.538,0.634
			C30.675,17.967,30.959,18.689,31.26,19.71L31.26,19.71z M60.812,19.463v12.995c0,0.9-0.217,1.581-0.652,2.042
			s-0.986,0.692-1.655,0.692s-1.212-0.236-1.63-0.708s-0.627-1.147-0.627-2.026V19.594c0-0.89,0.209-1.56,0.627-2.01
			c0.418-0.45,0.961-0.675,1.63-0.675s1.22,0.225,1.655,0.675C60.595,18.035,60.812,18.661,60.812,19.463L60.812,19.463z
			 M58.555,14.818c-0.635,0-1.178-0.192-1.629-0.577c-0.452-0.384-0.677-0.928-0.677-1.631c0-0.637,0.231-1.161,0.694-1.573
			s1-0.617,1.613-0.617c0.591,0,1.114,0.187,1.571,0.56s0.686,0.917,0.686,1.63c0,0.692-0.223,1.233-0.669,1.623
			C59.698,14.623,59.169,14.818,58.555,14.818L58.555,14.818z M65.158,17.305h1.086v-1.351c0-1.405,0.181-2.523,0.543-3.352
			c0.362-0.829,0.975-1.433,1.838-1.812c0.864-0.379,2.048-0.568,3.553-0.568c2.663,0,3.995,0.642,3.995,1.927
			c0,0.417-0.139,0.774-0.418,1.071c-0.279,0.296-0.607,0.444-0.986,0.444c-0.178,0-0.485-0.033-0.919-0.099
			s-0.802-0.099-1.103-0.099c-0.825,0-1.354,0.239-1.588,0.716s-0.351,1.161-0.351,2.051v1.07h1.12c1.738,0,2.607,0.516,2.607,1.548
			c0,0.736-0.231,1.203-0.694,1.4c-0.462,0.198-1.1,0.296-1.914,0.296h-1.12v11.908c0,0.89-0.215,1.567-0.644,2.034
			s-0.983,0.7-1.663,0.7c-0.646,0-1.184-0.233-1.613-0.7c-0.43-0.467-0.644-1.145-0.644-2.034V20.55h-1.253
			c-0.68,0-1.204-0.151-1.571-0.453c-0.368-0.302-0.551-0.695-0.551-1.178C62.868,17.843,63.632,17.305,65.158,17.305L65.158,17.305
			z M89.211,27.155h-8.926c0.011,1.021,0.22,1.921,0.627,2.701c0.407,0.779,0.947,1.367,1.621,1.762
			c0.674,0.396,1.418,0.593,2.231,0.593c0.546,0,1.045-0.063,1.496-0.189c0.451-0.126,0.889-0.324,1.312-0.593
			s0.813-0.557,1.17-0.865c0.356-0.308,0.819-0.725,1.387-1.251c0.234-0.198,0.568-0.296,1.003-0.296
			c0.468,0,0.847,0.126,1.137,0.378c0.29,0.252,0.434,0.609,0.434,1.071c0,0.406-0.161,0.881-0.484,1.425s-0.811,1.065-1.462,1.564
			s-1.471,0.915-2.458,1.244c-0.986,0.329-2.12,0.494-3.401,0.494c-2.931,0-5.209-0.823-6.836-2.471
			c-1.627-1.647-2.44-3.881-2.44-6.704c0-1.329,0.201-2.561,0.602-3.697c0.401-1.137,0.986-2.111,1.755-2.924
			s1.716-1.436,2.842-1.87c1.125-0.434,2.373-0.65,3.744-0.65c1.783,0,3.312,0.371,4.588,1.112s2.231,1.699,2.867,2.874
			c0.635,1.175,0.952,2.372,0.952,3.591c0,1.131-0.329,1.864-0.986,2.199C91.328,26.987,90.404,27.155,89.211,27.155L89.211,27.155z
			 M80.285,24.602h8.274c-0.111-1.538-0.532-2.688-1.262-3.451c-0.73-0.763-1.69-1.145-2.883-1.145c-1.136,0-2.07,0.387-2.8,1.161
			C80.884,21.942,80.441,23.086,80.285,24.602L80.285,24.602z M113.9,26.051c0,1.34-0.212,2.575-0.635,3.706
			c-0.423,1.131-1.037,2.103-1.838,2.916c-0.803,0.813-1.761,1.436-2.875,1.869c-1.114,0.434-2.368,0.651-3.761,0.651
			c-1.382,0-2.624-0.22-3.728-0.659c-1.103-0.439-2.059-1.068-2.867-1.886c-0.808-0.818-1.421-1.785-1.838-2.899
			c-0.418-1.115-0.627-2.348-0.627-3.698c0-1.361,0.212-2.607,0.635-3.738c0.423-1.131,1.031-2.097,1.822-2.899
			s1.75-1.419,2.875-1.853s2.368-0.65,3.728-0.65c1.382,0,2.636,0.219,3.761,0.659c1.126,0.439,2.089,1.065,2.892,1.877
			c0.802,0.813,1.412,1.779,1.831,2.899C113.691,23.465,113.9,24.7,113.9,26.051L113.9,26.051z M109.32,26.051
			c0-1.833-0.409-3.261-1.229-4.282c-0.819-1.021-1.919-1.532-3.301-1.532c-0.892,0-1.677,0.228-2.356,0.684
			c-0.68,0.456-1.204,1.128-1.572,2.018c-0.368,0.89-0.551,1.927-0.551,3.113c0,1.175,0.181,2.202,0.543,3.081
			c0.362,0.878,0.88,1.551,1.555,2.018s1.468,0.7,2.382,0.7c1.382,0,2.482-0.513,3.301-1.54
			C108.91,29.282,109.32,27.863,109.32,26.051L109.32,26.051z"/>
		<path id="Star" fill="#FFC746" d="M5.207,17.845c-0.461-1.686-2.223-3.422-3.933-3.875l0.009,0.002
			c-1.711-0.454-1.71-1.19,0-1.644l-0.009,0.002c1.711-0.454,3.473-2.191,3.933-3.876L5.204,8.464c0.461-1.687,1.208-1.685,1.669,0
			L6.871,8.455c0.46,1.687,2.223,3.422,3.933,3.876l-0.009-0.002c1.712,0.454,1.71,1.19,0,1.644l0.009-0.002
			c-1.711,0.454-3.473,2.19-3.933,3.875l0.002-0.009c-0.461,1.687-1.208,1.685-1.669,0L5.207,17.845"/>
		<path id="Star_1_" fill="#44B3FF" d="M121.265,9.474c-0.461-1.687-2.222-3.422-3.934-3.876l0.783,0.208
			c-1.711-0.454-1.711-1.19,0-1.644l-0.783,0.208c1.711-0.454,3.473-2.189,3.934-3.875l-0.21,0.771c0.46-1.687,1.208-1.687,1.668,0
			l-0.211-0.771c0.461,1.687,2.222,3.422,3.934,3.875l-0.783-0.208c1.712,0.454,1.711,1.19,0,1.644l0.783-0.208
			c-1.711,0.454-3.473,2.189-3.934,3.876l0.211-0.771c-0.461,1.687-1.208,1.687-1.668,0L121.265,9.474"/>
		<path id="Star_2_" fill="#FF6666" d="M134.886,17.393c-0.33-1.228-1.592-2.491-2.818-2.821l0.561,0.151
			c-1.226-0.331-1.226-0.866,0-1.197l-0.561,0.151c1.226-0.331,2.488-1.594,2.818-2.821l-0.151,0.561
			c0.33-1.228,0.865-1.228,1.195,0l-0.151-0.561c0.33,1.228,1.592,2.49,2.818,2.821l-0.561-0.151c1.226,0.331,1.226,0.866,0,1.197
			l0.561-0.151c-1.226,0.331-2.488,1.594-2.818,2.821l0.151-0.562c-0.33,1.227-0.865,1.227-1.195,0L134.886,17.393"/>
	</g>
</g>
</svg>
