<?xml version="1.0" encoding="UTF-8"?>
<svg width="300px" height="430px" viewBox="0 0 300 430" version="1.1" xmlns="http://www.w3.org/2000/svg" xmlns:xlink="http://www.w3.org/1999/xlink">
    <!-- Generator: Sketch 41.1 (35376) - http://www.bohemiancoding.com/sketch -->
    <title>gilles</title>
    <desc>Created with Sketch.</desc>
    <defs></defs>
    <g id="Page-1" stroke="none" stroke-width="1" fill="none" fill-rule="evenodd" stroke-linecap="round" stroke-linejoin="round">
        <g id="gilles" stroke-width="4" stroke="#447FFF">
            <g id="Dynamic-group" transform="translate(48.000000, 39.000000)">
                <g id="20:20">
                    <path d="M3.73548307,151.773925 C20.6837692,150.664855 37.6098964,147.755026 54.5803415,148.446715 C89.1270411,149.854786 98.7260162,152.205962 90.5052127,186.567245 C88.2644201,195.933301 61.4133554,196.063106 54.3330488,196.721229 C11.6720296,200.686622 -0.165272076,204.96428 0.663059793,159.919593" id="Path-29"></path>
                    <path d="M17.0892838,152.148611 C20.02933,191.554588 14.9607126,178.367014 21.7278935,194.278278" id="Path-30"></path>
                    <path d="M121.724031,188.882803 C119.655765,177.140151 108.835215,163.528625 115.519234,153.654847 C118.899905,148.660847 166.289898,149.23347 173.70044,149.825559 C181.019398,150.41033 188.369516,151.354201 195.454696,153.280162 C198.133699,154.008394 202.099499,154.922339 202.536257,157.663985 C209.827318,203.431925 190.804957,198.379928 155.32585,195.342386 C146.933066,194.623838 131.430431,194.284539 123.732346,192.269962 L121.724031,188.882803 Z" id="Path-31"></path>
                    <path d="M82.1647075,150.020395 L118.464264,155.348427" id="Path-32"></path>
                    <path d="M44.2390143,51.1483157 C23.8828298,77.1754539 23.7803536,113.560096 24.92771,145.374292" id="Path-33"></path>
                    <path d="M25.5571821,112.214602 C46.3279841,65.3060724 47.0053413,84.2013415 43.7369354,58.484663" id="Path-34"></path>
                    <path d="M176.578027,144.377628 C175.938981,36.1633506 182.297882,73.5845916 174.389862,30.5256111" id="Path-35"></path>
                    <path d="M133.451695,9.77551344 C111.332118,59.8618682 125.823722,50.4365858 83.4836014,66.9525613" id="Path-36"></path>
                    <path d="M135.519961,7.57985486 C122.280073,67.0472593 140.040415,69.9378294 106.114622,81.5578124" id="Path-37"></path>
                    <path d="M40.6645121,48.2632353 C95.6330145,48.9760121 107.857528,62.1252032 126.047904,11.4016497" id="Path-38"></path>
                    <path d="M39.6004045,51.8377375 C44.5312692,44.5463525 48.0405093,36.0564966 54.3929986,29.9635825 C73.8890763,11.2641528 120.538134,-3.11544567 144.355051,11.5290428" id="Path-39"></path>
                    <path d="M135.265174,10.0902495 C157.042597,41.3832546 156.064751,73.5410998 185.480561,59.3014779 C186.005712,59.0472622 185.775313,58.1724248 185.92269,57.6078983" id="Path-40"></path>
                    <path d="M136.141939,10.3375421 C173.527695,63.238851 172.170932,40.6872769 172.441496,67.5745396" id="Path-41"></path>
                    <path d="M134.950438,0.618193334 C179.451032,30.8883129 180.728717,24.9375885 186.297375,75.7876516" id="Path-42"></path>
                    <path d="M41.3539339,134.403493 C50.3388986,128.908102 58.6563772,122.131475 68.3088279,117.917319 C83.4589555,111.302937 81.921054,122.851118 73.1422743,127.381882 C63.9654073,132.118099 53.1795755,133.29945 43.2948062,135.220308" id="Path-43"></path>
                    <path d="M148.686418,138.607467 C141.205193,134.218648 131.805901,132.095461 126.242741,125.441009 C123.218415,121.82342 135.666659,126.695879 140.091127,128.32609 C143.879302,129.721856 147.378716,131.927386 150.567341,134.403493 C169.079269,148.778815 142.287936,141.505421 137.902962,139.798968" id="Path-44"></path>
                    <path d="M102.794906,288.256962 C88.3845136,284.088667 79.3650773,279.428228 71.5685941,265.558498 C70.6413837,263.909016 64.6843206,251.804558 74.3262813,255.149728 C84.0532231,258.524381 92.1789989,266.873395 102.412726,268.001449 C105.877515,268.38337 105.167642,261.496767 107.366072,258.791673 C110.956438,254.37385 121.951468,247.222796 127.868877,249.319617 C129.040558,249.7348 130.154002,250.680273 130.626564,251.830012 C135.198659,262.953871 111.352431,297.760993 98.4035886,285.686617" id="Path-45"></path>
                    <path d="M79.5344134,191.393198 C68.6715741,218.182431 73.7525703,210.995779 94.4544006,231.012471 C95.913802,232.423572 107.510552,252.104135 114.140391,244.366271 C123.168368,233.829475 123.425163,211.608126 125.05124,201.614625" id="Path-46"></path>
                    <path d="M65.0490617,200.610468 C47.512301,224.543665 49.9992774,213.458722 48.248152,230.263099" id="Path-47"></path>
                    <path d="M130.566615,206.440578 L151.376662,233.208129" id="Path-48"></path>
                    <path d="M25.7445249,201.734525 C26.4871743,225.494075 23.1169731,234.611567 33.5829512,253.838327 C37.3550503,260.767947 44.4560681,265.80644 47.1840444,273.209581 C55.9909414,297.109607 51.3454831,318.992991 68.6235639,339.723799 C76.8824619,349.633095 104.321454,356.647496 115.331891,349.375704 C137.185194,334.942792 129.092746,328.629739 139.716441,307.058694 C144.087149,298.184122 151.971366,291.336528 156.270058,282.426851 C166.841091,260.516818 167.595804,234.324406 167.675493,210.577109" id="Path-49"></path>
                    <path d="M166.678829,223.743567 C177.956857,217.73386 182.964818,207.147257 179.088421,194.090935" id="Path-50"></path>
                    <path d="M11.1992235,196.533886 C16.319929,205.498868 21.4406344,214.463849 26.5613399,223.428831" id="Path-51"></path>
                    <path d="M30.2557416,219.164907 L31.6345852,247.753431" id="Path-52"></path>
                    <path d="M44.7410933,228.06744 L47.3713873,269.949815" id="Path-53"></path>
                    <path d="M58.5969729,233.020786 L60.3505022,327.126863" id="Path-54"></path>
                    <path d="M71.5086443,230.015806 L73.7043029,260.417809" id="Path-55"></path>
                    <path d="M75.1430963,274.333639 L77.3387549,344.677144" id="Path-56"></path>
                    <path d="M84.9898382,237.726839 L86.4885812,253.148906" id="Path-57"></path>
                    <path d="M95.6459014,290.137884 L96.20793,352.762863" id="Path-58"></path>
                    <path d="M110.251152,291.134548 L113.076283,343.987723" id="Path-59"></path>
                    <path d="M100.659197,239.915004 L101.978091,262.860761" id="Path-60"></path>
                    <path d="M119.153686,234.152337 L121.102052,247.004059" id="Path-61"></path>
                    <path d="M127.306849,274.146296 L128.745642,338.592248" id="Path-62"></path>
                    <path d="M136.771411,230.765178 L141.095285,305.747293" id="Path-63"></path>
                    <path d="M148.304239,233.522865 C150.290073,250.888301 152.275908,268.253738 154.261743,285.619174" id="Path-64"></path>
                    <path d="M159.529824,218.730271 L164.54312,267.88155" id="Path-65"></path>
                    <path d="M170.875309,196.908572 L171.249995,214.65369" id="Path-66"></path>
                    <path d="M85.5518668,280.665828 C86.7735202,265.112539 110.1965,271.312739 112.319418,283.865645" id="Path-273"></path>
                    <path d="M189.662054,153.617379 C191.240221,181.375082 191.657011,169.012463 189.722003,190.726257" id="Path-292"></path>
                    <circle id="Oval" fill="#447FFF" cx="138.634257" cy="171.671361" r="5"></circle>
                    <circle id="Oval" fill="#447FFF" cx="66.6342573" cy="171.671361" r="5"></circle>
                </g>
            </g>
        </g>
    </g>
</svg>