<svg xmlns="http://www.w3.org/2000/svg" xmlns:xlink="http://www.w3.org/1999/xlink" width="1441" height="600" viewBox="0 0 1441 600">
    <defs>
        <path id="a" d="M5 0h78a5 5 0 0 1 5 5v26a5 5 0 0 1-5 5H5a5 5 0 0 1-5-5V5a5 5 0 0 1 5-5z"/>
        <path id="c" d="M5 0h78a5 5 0 0 1 5 5v26a5 5 0 0 1-5 5H5a5 5 0 0 1-5-5V5a5 5 0 0 1 5-5z"/>
        <path id="e" d="M5 0h78a5 5 0 0 1 5 5v26a5 5 0 0 1-5 5H5a5 5 0 0 1-5-5V5a5 5 0 0 1 5-5z"/>
    </defs>
    <g fill="none" fill-rule="evenodd">
        <path fill="#FFF" d="M0 0h1441v600H0z"/>
        <text fill="#000" fill-opacity=".87" font-family="Raleway-Medium, Raleway" font-size="14.197" font-weight="400" letter-spacing=".25" transform="translate(880 135)">
            <tspan x="0" y="13">Lorem ipsum dolor sit amet, </tspan> <tspan x="0" y="37">consectetur adipiscing elit, Nulla </tspan> <tspan x="0" y="61">ultrices urna neque, vitae </tspan> <tspan x="0" y="85">elementum magna facilisis non. </tspan> <tspan x="0" y="109">Mauris sodales elit ac consequat </tspan> <tspan x="0" y="133">mollis Cras ultrices ex nec leo </tspan> <tspan x="0" y="157">eleifend, eget hendrerit tortor </tspan> <tspan x="0" y="181">condimentum.</tspan>
        </text>
        <g transform="translate(880 344)">
            <mask id="b" fill="#fff">
                <use xlink:href="#a"/>
            </mask>
            <use fill="#FAFAFA" xlink:href="#a"/>
            <g fill="#1E88E5" mask="url(#b)">
                <path d="M0 0h88v36H0z"/>
            </g>
            <g font-family="Raleway-Medium, Raleway" font-size="14.142" font-weight="400" letter-spacing="1.25" mask="url(#b)">
                <text transform="translate(16 10)">
                    <tspan x=".173" y="13" fill="#FFF">Bouton</tspan>
                </text>
            </g>
        </g>
        <text fill="#000" fill-opacity=".87" font-family="Raleway-Medium, Raleway" font-size="14.197" font-weight="400" letter-spacing=".25" transform="translate(600 135)">
            <tspan x="0" y="13">Lorem ipsum dolor sit amet, </tspan> <tspan x="0" y="37">consectetur adipiscing elit, Nulla </tspan> <tspan x="0" y="61">ultrices urna neque, vitae </tspan> <tspan x="0" y="85">elementum magna facilisis non. </tspan> <tspan x="0" y="109">Mauris sodales elit ac consequat </tspan> <tspan x="0" y="133">mollis Cras ultrices ex nec leo </tspan> <tspan x="0" y="157">eleifend, eget hendrerit tortor </tspan> <tspan x="0" y="181">condimentum.</tspan>
        </text>
        <g transform="translate(600 344)">
            <mask id="d" fill="#fff">
                <use xlink:href="#c"/>
            </mask>
            <use fill="#FAFAFA" xlink:href="#c"/>
            <g fill="#1E88E5" mask="url(#d)">
                <path d="M0 0h88v36H0z"/>
            </g>
            <g font-family="Raleway-Medium, Raleway" font-size="14.142" font-weight="400" letter-spacing="1.25" mask="url(#d)">
                <text transform="translate(16 10)">
                    <tspan x=".173" y="13" fill="#FFF">Bouton</tspan>
                </text>
            </g>
        </g>
        <g>
            <g transform="translate(310 344)">
                <mask id="f" fill="#fff">
                    <use xlink:href="#e"/>
                </mask>
                <use fill="#FAFAFA" xlink:href="#e"/>
                <g fill="#1E88E5" mask="url(#f)">
                    <path d="M0 0h88v36H0z"/>
                </g>
                <g font-family="Raleway-Medium, Raleway" font-size="14.142" font-weight="400" letter-spacing="1.25" mask="url(#f)">
                    <text transform="translate(16 10)">
                        <tspan x=".173" y="13" fill="#FFF">Bouton</tspan>
                    </text>
                </g>
            </g>
            <text fill="#000" fill-opacity=".87" font-family="Raleway-Medium, Raleway" font-size="14.197" font-weight="400" letter-spacing=".25" transform="translate(310 135)">
                <tspan x="0" y="13">Lorem ipsum dolor sit amet, </tspan> <tspan x="0" y="37">consectetur adipiscing elit, Nulla </tspan> <tspan x="0" y="61">ultrices urna neque, vitae </tspan> <tspan x="0" y="85">elementum magna facilisis non. </tspan> <tspan x="0" y="109">Mauris sodales elit ac consequat </tspan> <tspan x="0" y="133">mollis Cras ultrices ex nec leo </tspan> <tspan x="0" y="157">eleifend, eget hendrerit tortor </tspan> <tspan x="0" y="181">condimentum.</tspan>
            </text>
        </g>
        <text fill="#000" fill-opacity=".87" font-family="OpenSans-SemiBold, Open Sans" font-size="34.412" font-weight="500" letter-spacing=".25" transform="translate(310 39)">
            <tspan x="371.59" y="37">Titre</tspan>
        </text>
    </g>
</svg>
