<svg xmlns="http://www.w3.org/2000/svg" width="1441" height="600" viewBox="0 0 1441 600">
    <g fill="none" fill-rule="evenodd">
        <path fill="#FFF" d="M0 0h1441v600H0z"/>
        <g transform="translate(881 110)">
            <rect width="250" height="274" fill="#1E88E5" rx="4"/>
            <text fill="#FFF" font-family="Raleway-Regular, Raleway" font-size="14.197" letter-spacing=".25">
                <tspan x="20" y="38">Lorem ipsum dolor sit amet, </tspan> <tspan x="20" y="58">consectetur adipiscing elit, </tspan> <tspan x="20" y="78">Nulla ultrices urna neque, </tspan> <tspan x="20" y="98">vitae elementum magna </tspan> <tspan x="20" y="118">facilisis non. Mauris sodales </tspan> <tspan x="20" y="138">elit ac consequat mollis Cras </tspan> <tspan x="20" y="158">ultrices ex nec leo eleifend, </tspan> <tspan x="20" y="178">eget hendrerit tortor </tspan> <tspan x="20" y="198">condimentum. ultrices ex nec </tspan> <tspan x="20" y="218">leo eleifend,</tspan>
            </text>
        </g>
        <g transform="translate(596 110)">
            <rect width="250" height="274" fill="#1E88E5" rx="4"/>
            <text fill="#FFF" font-family="Raleway-Regular, Raleway" font-size="14.197" letter-spacing=".25">
                <tspan x="20" y="38">Lorem ipsum dolor sit amet, </tspan> <tspan x="20" y="58">consectetur adipiscing elit, </tspan> <tspan x="20" y="78">Nulla ultrices urna neque, </tspan> <tspan x="20" y="98">vitae elementum magna </tspan> <tspan x="20" y="118">facilisis non. Mauris sodales </tspan> <tspan x="20" y="138">elit ac consequat mollis Cras </tspan> <tspan x="20" y="158">ultrices ex nec leo eleifend, </tspan> <tspan x="20" y="178">eget hendrerit tortor </tspan> <tspan x="20" y="198">condimentum. ultrices ex nec </tspan> <tspan x="20" y="218">leo eleifend,</tspan>
            </text>
        </g>
        <g transform="translate(311 110)">
            <rect width="250" height="274" fill="#1E88E5" rx="4"/>
            <text fill="#FFF" font-family="Raleway-Regular, Raleway" font-size="14.197" letter-spacing=".25">
                <tspan x="20" y="38">Lorem ipsum dolor sit amet, </tspan> <tspan x="20" y="58">consectetur adipiscing elit, </tspan> <tspan x="20" y="78">Nulla ultrices urna neque, </tspan> <tspan x="20" y="98">vitae elementum magna </tspan> <tspan x="20" y="118">facilisis non. Mauris sodales </tspan> <tspan x="20" y="138">elit ac consequat mollis Cras </tspan> <tspan x="20" y="158">ultrices ex nec leo eleifend, </tspan> <tspan x="20" y="178">eget hendrerit tortor </tspan> <tspan x="20" y="198">condimentum. ultrices ex nec </tspan> <tspan x="20" y="218">leo eleifend,</tspan>
            </text>
        </g>
        <text fill="#000" fill-opacity=".87" font-family="OpenSans-SemiBold, Open Sans" font-size="34.412" font-weight="500" letter-spacing=".25">
            <tspan x="682.59" y="76">Titre</tspan>
        </text>
    </g>
</svg>
